<svg width="32" height="32" viewBox="0 0 32 32" fill="none" xmlns="http://www.w3.org/2000/svg">
<path d="M29.9999 9.99997C29.9904 9.34084 29.8316 8.69244 29.5354 8.10354C29.2392 7.51463 28.8134 7.00056 28.2899 6.59997C27.2885 5.8192 26.0219 5.46037 24.7599 5.59997C24.5601 5.06277 24.2472 4.57476 23.8425 4.16901C23.4377 3.76326 22.9504 3.44923 22.4137 3.2482C21.877 3.04717 21.3033 2.96382 20.7316 3.00381C20.1598 3.04379 19.6034 3.20618 19.0999 3.47997C18.7247 3.01995 18.2519 2.64918 17.7158 2.39455C17.1796 2.13992 16.5934 2.00781 15.9999 2.00781C15.4063 2.00781 14.8201 2.13992 14.284 2.39455C13.7478 2.64918 13.275 3.01995 12.8999 3.47997C12.3944 3.20685 11.8361 3.04581 11.2629 3.00781C10.6896 2.96981 10.1149 3.05573 9.57785 3.25974C9.04079 3.46375 8.55398 3.78105 8.15054 4.19005C7.7471 4.59906 7.43649 5.09017 7.23986 5.62997C5.97827 5.49569 4.71358 5.85396 3.70986 6.62997C3.19027 7.02742 2.76678 7.53671 2.47077 8.12007C2.17476 8.70344 2.01381 9.34594 1.99986 9.99997C1.94474 10.9216 2.23158 11.8312 2.80543 12.5545C3.37928 13.2779 4.19981 13.764 5.10986 13.92L6.99986 29.12C7.02933 29.3639 7.14757 29.5884 7.33201 29.7507C7.51644 29.913 7.75418 30.0017 7.99986 30H23.9999C24.2455 30.0017 24.4833 29.913 24.6677 29.7507C24.8521 29.5884 24.9704 29.3639 24.9999 29.12L26.8999 13.92C27.8081 13.7618 28.6262 13.2747 29.198 12.5516C29.7699 11.8286 30.0553 10.9202 29.9999 9.99997V9.99997ZM6.99986 13.12C7.15084 12.7043 7.42862 12.3465 7.79395 12.0973C8.15929 11.848 8.59371 11.7199 9.03583 11.7309C9.47795 11.742 9.90543 11.8917 10.2579 12.1589C10.6103 12.4261 10.8698 12.7973 10.9999 13.22L11.3599 18.43C10.9525 18.7266 10.6182 19.1123 10.3825 19.5576C10.1469 20.003 10.016 20.4963 9.99986 21C10.0281 21.5714 10.1971 22.1269 10.492 22.6172C10.7869 23.1074 11.1983 23.5172 11.6899 23.81L11.9399 28H8.87986L6.99986 13.12ZM15.9999 23C13.7099 23 11.9999 21.94 11.9999 21C11.9999 20.06 13.7099 19 15.9999 19C18.2899 19 19.9999 20.06 19.9999 21C19.9999 21.94 18.2899 23 15.9999 23ZM15.9999 25C16.7587 25.0025 17.5148 24.9084 18.2499 24.72L18.0599 28H13.9399L13.7499 24.72C14.4849 24.9084 15.241 25.0025 15.9999 25V25ZM18.6899 17.42C16.9403 16.8597 15.0594 16.8597 13.3099 17.42L13.0099 13.12C13.2038 12.4858 13.6025 11.9338 14.1434 11.5502C14.6844 11.1667 15.3372 10.9732 15.9999 11C16.6641 10.9709 17.3193 11.1634 17.8623 11.5471C18.4053 11.9308 18.8054 12.4841 18.9999 13.12L18.6899 17.42ZM23.1199 28H20.0599L20.3099 23.81C20.8014 23.5172 21.2129 23.1074 21.5077 22.6172C21.8026 22.1269 21.9716 21.5714 21.9999 21C21.9826 20.4955 21.8502 20.0016 21.6127 19.5562C21.3752 19.1108 21.0391 18.7255 20.6299 18.43L20.9999 13.22C21.1299 12.7973 21.3894 12.4261 21.7419 12.1589C22.0943 11.8917 22.5218 11.742 22.9639 11.7309C23.406 11.7199 23.8404 11.848 24.2058 12.0973C24.5711 12.3465 24.8489 12.7043 24.9999 13.12L23.1199 28ZM26.6099 11.93C26.3125 11.3622 25.8859 10.8722 25.3644 10.4996C24.8429 10.1269 24.2411 9.88208 23.6076 9.78477C22.9741 9.68746 22.3265 9.74039 21.7172 9.93932C21.1079 10.1382 20.5539 10.4776 20.0999 10.93C19.6114 10.3141 18.9872 9.81938 18.276 9.48459C17.5648 9.14979 16.7858 8.98393 15.9999 8.99997C15.2081 8.99219 14.4254 9.16886 13.7138 9.516C13.0021 9.86314 12.3811 10.3712 11.8999 11C11.4458 10.5476 10.8918 10.2082 10.2825 10.0093C9.67318 9.81039 9.02566 9.75745 8.39214 9.85477C7.75862 9.95208 7.15684 10.1969 6.63533 10.5696C6.11383 10.9422 5.6872 11.4322 5.38986 12C4.9413 11.9172 4.54359 11.6606 4.28327 11.286C4.02295 10.9115 3.92109 10.4493 3.99986 9.99997C4.00679 9.64489 4.09514 9.29615 4.25811 8.98061C4.42109 8.66506 4.65432 8.39115 4.93986 8.17997C5.34529 7.89648 5.81059 7.71023 6.29964 7.63565C6.7887 7.56108 7.28836 7.6002 7.75986 7.74997C7.9015 7.78552 8.0492 7.78962 8.19259 7.76198C8.33599 7.73433 8.47158 7.67562 8.58986 7.58997C8.70812 7.50408 8.80613 7.39331 8.87696 7.26546C8.9478 7.13761 8.98975 6.99578 8.99986 6.84997C9.03776 6.34595 9.2651 5.87498 9.63614 5.53176C10.0072 5.18855 10.4944 4.99854 10.9999 4.99997C11.273 4.99856 11.5433 5.05485 11.7932 5.16513C12.0431 5.27542 12.2668 5.43723 12.4499 5.63997C12.5663 5.76535 12.7129 5.85878 12.8757 5.9113C13.0385 5.96383 13.2121 5.9737 13.3799 5.93997C13.5495 5.90718 13.7078 5.83099 13.8392 5.71882C13.9707 5.60666 14.0708 5.46235 14.1299 5.29997C14.2738 4.9205 14.5298 4.59381 14.8638 4.36327C15.1978 4.13273 15.594 4.00926 15.9999 4.00926C16.4057 4.00926 16.8019 4.13273 17.1359 4.36327C17.47 4.59381 17.7259 4.9205 17.8699 5.29997C17.9289 5.46235 18.0291 5.60666 18.1605 5.71882C18.2919 5.83099 18.4502 5.90718 18.6199 5.93997C18.7876 5.9737 18.9612 5.96383 19.124 5.9113C19.2868 5.85878 19.4335 5.76535 19.5499 5.63997C19.7329 5.43723 19.9566 5.27542 20.2065 5.16513C20.4564 5.05485 20.7267 4.99856 20.9999 4.99997C21.5053 4.99854 21.9925 5.18855 22.3636 5.53176C22.7346 5.87498 22.962 6.34595 22.9999 6.84997C23.0111 6.99661 23.0546 7.13896 23.1272 7.26687C23.1998 7.39478 23.2997 7.5051 23.4199 7.58997C23.5381 7.67562 23.6737 7.73433 23.8171 7.76198C23.9605 7.78962 24.1082 7.78552 24.2499 7.74997C24.7214 7.6002 25.221 7.56108 25.7101 7.63565C26.1991 7.71023 26.6644 7.89648 27.0699 8.17997C27.3535 8.39219 27.5849 8.66656 27.7461 8.98204C27.9073 9.29752 27.9941 9.64573 27.9999 9.99997C28.0589 10.4384 27.9477 10.8828 27.6891 11.2417C27.4306 11.6007 27.0444 11.847 26.6099 11.93V11.93Z" fill="#ffffff" id="id_101"></path>
</svg>